<svg width="105" height="87" viewBox="0 0 105 87" fill="none" xmlns="http://www.w3.org/2000/svg">
<path d="M104.6 0.240234V84.7202H89.9601V26.6402H69.0801V16.5602C83.6401 16.5602 91.8001 11.1202 93.5601 0.240234H104.6Z" fill="white"/>
<path d="M28.8 0C48.32 0 58.08 14.52 58.08 43.56C58.08 57.56 55.64 68.2 50.76 75.48C45.88 82.76 38.72 86.4 29.28 86.4C9.76 86.4 0 72.04 0 43.32C0 29.16 2.44 18.4 7.32 11.04C12.2 3.68 19.36 0 28.8 0ZM28.92 11.52C26.52 11.52 24.44 12 22.68 12.96C20.92 13.84 19.48 15.24 18.36 17.16C17.32 19 16.48 20.88 15.84 22.8C15.2 24.64 14.72 27 14.4 29.88C14.16 32.76 14 35.16 13.92 37.08C13.84 38.92 13.8 41.28 13.8 44.16C13.8 54.96 15 62.8 17.4 67.68C19.88 72.56 23.8 75 29.16 75C31.24 75 33.08 74.6 34.68 73.8C36.36 72.92 37.72 71.88 38.76 70.68C39.8 69.48 40.68 67.88 41.4 65.88C42.12 63.88 42.64 62.08 42.96 60.48C43.36 58.8 43.64 56.76 43.8 54.36C44.04 51.88 44.16 50 44.16 48.72C44.24 47.36 44.28 45.64 44.28 43.56C44.28 40.84 44.24 38.76 44.16 37.32C44.16 35.8 44.04 33.56 43.8 30.6C43.56 27.56 43.08 25.12 42.36 23.28C41.72 21.44 40.84 19.52 39.72 17.52C38.68 15.52 37.24 14.04 35.4 13.08C33.56 12.04 31.4 11.52 28.92 11.52Z" fill="white"/>
</svg>
