<svg width="120" height="87" viewBox="0 0 120 87" fill="none" xmlns="http://www.w3.org/2000/svg">
<path d="M119.313 72.6182V84.7213H62.0332C62.1131 80.9665 62.6324 77.5313 63.591 74.4157C64.5497 71.3001 65.6282 68.6638 66.8265 66.5068C68.1047 64.2699 69.9421 62.0331 72.3388 59.7962C74.8153 57.4794 77.0122 55.6021 78.9295 54.1641C80.9267 52.6462 83.6429 50.7289 87.0781 48.4121C87.3178 48.2524 88.4761 47.4934 90.5532 46.1353C92.7102 44.6974 94.0284 43.8186 94.5077 43.499C94.987 43.0996 96.0655 42.2608 97.7432 40.9826C99.4208 39.6245 100.499 38.546 100.979 37.7471C101.538 36.9482 102.257 35.8697 103.136 34.5116C104.094 33.1535 104.733 31.7954 105.053 30.4373C105.372 28.9994 105.532 27.4815 105.532 25.8837C105.532 21.4899 104.294 18.0547 101.817 15.5782C99.4208 13.0217 96.1454 11.7435 91.9912 11.7435C89.5946 11.7435 87.5175 12.143 85.76 12.9419C84.0024 13.6609 82.6044 14.6195 81.5658 15.8178C80.6072 17.0162 79.8083 18.574 79.1692 20.4913C78.5301 22.3287 78.0907 24.0862 77.851 25.7639C77.6913 27.4415 77.5714 29.3988 77.4915 31.6357H64.1902V29.4787C64.1902 20.4513 66.7067 13.3014 71.7396 8.02874C76.8524 2.67625 83.7228 0 92.3507 0C100.499 0 107.05 2.31675 112.003 6.95025C116.956 11.5039 119.433 17.5754 119.433 25.1647C119.433 28.2005 118.953 31.0764 117.995 33.7926C117.036 36.5088 115.998 38.7058 114.879 40.3834C113.841 42.061 112.003 44.0183 109.367 46.2552C106.731 48.492 104.773 50.0498 103.495 50.9286C102.217 51.8074 99.8602 53.4051 96.425 55.7219C86.439 62.1928 80.4474 67.8249 78.4502 72.6182H119.313Z" fill="white"/>
<path d="M28.7597 0.121094C48.2524 0.121094 57.9987 14.6208 57.9987 43.6201C57.9987 57.6005 55.5621 68.2256 50.689 75.4955C45.8158 82.7653 38.6658 86.4002 29.239 86.4002C9.74634 86.4002 0 72.0603 0 43.3805C0 29.2403 2.43659 18.4953 7.30976 11.1456C12.1829 3.79594 19.3329 0.121094 28.7597 0.121094ZM28.8795 11.625C26.4829 11.625 24.4058 12.1043 22.6483 13.063C20.8907 13.9417 19.4527 15.3398 18.3343 17.2571C17.2958 19.0945 16.4569 20.9719 15.8178 22.8892C15.1787 24.7266 14.6994 27.0833 14.3798 29.9593C14.1402 32.8352 13.9804 35.2319 13.9005 37.1492C13.8206 38.9866 13.7807 41.3433 13.7807 44.2193C13.7807 55.0042 14.979 62.8332 17.3756 67.7064C19.8522 72.5795 23.7667 75.0161 29.1192 75.0161C31.1963 75.0161 33.0337 74.6167 34.6315 73.8178C36.3091 72.939 37.6672 71.9005 38.7058 70.7022C39.7443 69.5039 40.6231 67.9061 41.3421 65.9089C42.0611 63.9117 42.5803 62.1142 42.8999 60.5165C43.2993 58.8388 43.5789 56.8017 43.7387 54.405C43.9784 51.9285 44.0982 50.0511 44.0982 48.7729C44.1781 47.4148 44.218 45.6972 44.218 43.6201C44.218 40.9039 44.1781 38.8269 44.0982 37.3889C44.0982 35.871 43.9784 33.6341 43.7387 30.6783C43.499 27.6425 43.0197 25.2059 42.3007 23.3685C41.6616 21.5311 40.7828 19.6138 39.6644 17.6166C38.6259 15.6194 37.1879 14.1414 35.3505 13.1828C33.513 12.1442 31.3561 11.625 28.8795 11.625Z" fill="white"/>
</svg>
