<svg width="122" height="87" viewBox="0 0 122 87" fill="none" xmlns="http://www.w3.org/2000/svg">
<path d="M64.4601 27.7629C64.6995 19.1468 67.2524 12.3657 72.1189 7.41939C76.9853 2.47313 83.5272 0 91.7443 0C99.4828 0 105.745 2.07424 110.532 6.22271C115.319 10.3712 117.712 15.7961 117.712 22.4975C117.712 26.5662 116.635 30.1562 114.481 33.2676C112.407 36.2992 109.575 38.4133 105.985 39.61C110.692 40.8066 114.401 43.1601 117.114 46.6704C119.826 50.1008 121.183 54.3291 121.183 59.3551C121.183 67.333 118.43 73.8349 112.926 78.8609C107.421 83.887 100.281 86.4 91.505 86.4C82.8092 86.4 75.7887 83.887 70.4435 78.8609C65.0984 73.8349 62.4258 67.1734 62.4258 58.8765V57.0814H75.5892C75.9881 68.8089 81.413 74.6726 91.864 74.6726C96.4912 74.6726 100.161 73.3562 102.873 70.7235C105.586 68.0111 106.942 64.3413 106.942 59.7141C106.942 54.8476 105.386 51.2975 102.275 49.0637C99.1637 46.8299 95.1349 45.713 90.1887 45.713C88.6729 45.713 87.2369 45.7529 85.8806 45.8327V35.5413H87.0773C89.5504 35.5413 91.6646 35.4216 93.4197 35.1823C95.1748 34.8632 96.9299 34.3446 98.6851 33.6266C100.52 32.8288 101.916 31.5922 102.873 29.9169C103.831 28.1618 104.309 26.0078 104.309 23.4548C104.309 19.785 103.153 16.8332 100.839 14.5994C98.5255 12.3656 95.4141 11.2487 91.505 11.2487C82.5698 11.2487 77.9028 16.7535 77.5039 27.7629H64.4601Z" fill="white"/>
<path d="M28.7202 0.120605C48.1862 0.120605 57.9191 14.6004 57.9191 43.5599C57.9191 57.5212 55.4859 68.1317 50.6194 75.3915C45.7529 82.6513 38.6127 86.2813 29.1989 86.2813C9.73296 86.2813 0 71.961 0 43.3206C0 29.1998 2.43324 18.4696 7.29972 11.13C12.1662 3.79041 19.3064 0.120605 28.7202 0.120605ZM28.8399 11.6087C26.4465 11.6087 24.3723 12.0874 22.6172 13.0447C20.8621 13.9223 19.426 15.3184 18.3091 17.2331C17.272 19.068 16.4344 20.9428 15.7961 22.8574C15.1579 24.6923 14.6792 27.0458 14.3601 29.9178C14.1208 32.7899 13.9612 35.1832 13.8814 37.0979C13.8017 38.9328 13.7618 41.2863 13.7618 44.1583C13.7618 54.9284 14.9584 62.7466 17.3518 67.6131C19.8249 72.4796 23.7341 74.9128 29.0792 74.9128C31.1535 74.9128 32.9884 74.514 34.5839 73.7162C36.2593 72.8386 37.6155 71.8015 38.6526 70.6048C39.6897 69.4081 40.5673 67.8126 41.2853 65.8181C42.0033 63.8236 42.5219 62.0286 42.841 60.4331C43.2399 58.7577 43.5191 56.7234 43.6787 54.33C43.918 51.8569 44.0377 49.9821 44.0377 48.7056C44.1175 47.3494 44.1573 45.6342 44.1573 43.5599C44.1573 40.8475 44.1175 38.7732 44.0377 37.3372C44.0377 35.8214 43.918 33.5876 43.6787 30.6358C43.4393 27.6043 42.9607 25.171 42.2427 23.3361C41.6044 21.5012 40.7269 19.5865 39.61 17.5921C38.5729 15.5976 37.1368 14.1217 35.3019 13.1644C33.467 12.1273 31.313 11.6087 28.8399 11.6087Z" fill="white"/>
</svg>
