<svg width="95" height="96" viewBox="0 0 95 96" fill="none" xmlns="http://www.w3.org/2000/svg">
<mask id="mask0_305_59" style="mask-type:luminance" maskUnits="userSpaceOnUse" x="0" y="0" width="95" height="96">
<path d="M94.9451 0H0V96H94.9451V0Z" fill="white"/>
</mask>
<g mask="url(#mask0_305_59)">
<path d="M48.0011 0V32.7033H-12.6582V0H48.0011ZM-11.6033 31.6484H46.9462V1.05495H-11.6033V31.6484Z" fill="white"/>
<path d="M48.0009 63.2969V96.0002H-19.5156V63.2969H48.0009ZM-18.4607 94.9452H46.9459V64.3518H-18.4607V94.9452Z" fill="white"/>
<path d="M111.297 0V32.7033H46.9453V0H111.297ZM48.0003 31.6484H110.242V1.05495H48.0003V31.6484Z" fill="white"/>
<path d="M119.209 63.2969V96.0002H46.9453V63.2969H119.209ZM48.0003 94.9452H118.154V64.3518H48.0003V94.9452Z" fill="white"/>
<path d="M71.7365 31.6484V64.3517H23.209V31.6484H71.7365ZM24.2639 63.2968H70.6815V32.7034H24.2639V63.2968Z" fill="white"/>
<path d="M119.209 31.6484V64.3517H70.6816V31.6484H119.209ZM71.7366 63.2968H118.154V32.7034H71.7366V63.2968Z" fill="white"/>
<path d="M24.2638 31.6484V64.3517H-24.2637V31.6484H24.2638ZM-23.2087 63.2968H23.2089V32.7034H-23.2087V63.2968Z" fill="white"/>
</g>
</svg>
