<svg width="118" height="76" viewBox="0 0 118 76" fill="none" xmlns="http://www.w3.org/2000/svg">
<path d="M114 64.5V37.1904L104.028 24.5H80.9971C78.7879 24.5 76.9971 22.7091 76.9971 20.5V4H16C14.8954 4 14 3.10457 14 2C14 0.89543 14.8954 0 16 0H76.9971C79.2062 4.12321e-05 80.9971 1.79089 80.9971 4V5H96.2461C97.7798 5.00007 99.1786 5.87719 99.8467 7.25781L106.708 21.4375L118 35.8086V64.5C118 66.7091 116.209 68.5 114 68.5H16C14.8954 68.5 14 67.6046 14 66.5C14 65.3954 14.8954 64.5 16 64.5H114ZM101.811 20.5L96.2461 9H80.9971V20.5H101.811Z" fill="#0F0F0F"/>
<path d="M100 67C100 71.9706 95.9706 76 91 76C86.0294 76 82 71.9706 82 67C82 62.0294 86.0294 58 91 58C95.9706 58 100 62.0294 100 67Z" fill="#FDC319"/>
<path d="M96 67C96 64.2386 93.7614 62 91 62C88.2386 62 86 64.2386 86 67C86 69.7614 88.2386 72 91 72V76C86.0294 76 82 71.9706 82 67C82 62.0294 86.0294 58 91 58C95.9706 58 100 62.0294 100 67C100 71.9706 95.9706 76 91 76V72C93.7614 72 96 69.7614 96 67Z" fill="#0F0F0F"/>
<path d="M48 67C48 71.9706 43.9706 76 39 76C34.0294 76 30 71.9706 30 67C30 62.0294 34.0294 58 39 58C43.9706 58 48 62.0294 48 67Z" fill="#FDC319"/>
<path d="M44 67C44 64.2386 41.7614 62 39 62C36.2386 62 34 64.2386 34 67C34 69.7614 36.2386 72 39 72V76C34.0294 76 30 71.9706 30 67C30 62.0294 34.0294 58 39 58C43.9706 58 48 62.0294 48 67C48 71.9706 43.9706 76 39 76V72C41.7614 72 44 69.7614 44 67Z" fill="#0F0F0F"/>
<path d="M43 15C44.1046 15 45 15.8954 45 17C45 18.1046 44.1046 19 43 19H7C5.89543 19 5 18.1046 5 17C5 15.8954 5.89543 15 7 15H43Z" fill="#0F0F0F"/>
<path d="M31 25C32.1046 25 33 25.8954 33 27C33 28.1046 32.1046 29 31 29H2C0.895431 29 0 28.1046 0 27C0 25.8954 0.895431 25 2 25H31Z" fill="#0F0F0F"/>
<path d="M38 35C39.1046 35 40 35.8954 40 37C40 38.1046 39.1046 39 38 39H7C5.89543 39 5 38.1046 5 37C5 35.8954 5.89543 35 7 35H38Z" fill="#0F0F0F"/>
<path d="M32 45C33.1046 45 34 45.8954 34 47C34 48.1046 33.1046 49 32 49H3C1.89543 49 1 48.1046 1 47C1 45.8954 1.89543 45 3 45H32Z" fill="#0F0F0F"/>
</svg>
