<svg width="900" height="900" viewBox="0 0 900 900" fill="none" xmlns="http://www.w3.org/2000/svg">
<path d="M450 0C698.528 0 900 201.472 900 450C900 698.528 698.528 900 450 900C201.472 900 0 698.528 0 450C0 201.472 201.472 0 450 0ZM617.077 283.322C607.314 273.559 591.485 273.559 581.722 283.322L450 415.043L318.678 283.722C308.915 273.959 293.085 273.959 283.322 283.722C273.559 293.485 273.559 309.313 283.322 319.076L414.645 450.398L283.322 581.722C273.559 591.485 273.559 607.313 283.322 617.076C293.085 626.839 308.915 626.839 318.678 617.076L450 485.754L581.722 617.476C591.485 627.239 607.314 627.239 617.077 617.476C626.84 607.713 626.84 591.883 617.077 582.12L485.355 450.398L617.077 318.678C626.84 308.915 626.84 293.085 617.077 283.322Z" fill="#DB3B3E"/>
</svg>
