<svg width="900" height="900" viewBox="0 0 900 900" fill="none" xmlns="http://www.w3.org/2000/svg">
<path d="M450 0C698.528 0 900 201.472 900 450C900 698.528 698.528 900 450 900C201.472 900 0 698.528 0 450C0 201.472 201.472 0 450 0ZM644.577 248.34C633.167 240.565 617.614 243.513 609.84 254.923L382.37 588.759L289.888 467.351C281.521 456.367 265.834 454.246 254.851 462.612C243.867 470.979 241.746 486.666 250.112 497.649L363.612 646.649L384.63 674.24L404.16 645.577L651.16 283.077C658.935 271.667 655.987 256.114 644.577 248.34Z" fill="#FDC319"/>
</svg>
