<svg width="15" height="15" viewBox="0 0 15 15" fill="none" xmlns="http://www.w3.org/2000/svg">
<path fill-rule="evenodd" clip-rule="evenodd" d="M0.292893 0.292672C0.683441 -0.0974298 1.31657 -0.0976846 1.70696 0.292672L7.36418 5.9499L13.0214 0.293648C13.4119 -0.0968756 14.0459 -0.096876 14.4364 0.293648C14.8265 0.684196 14.8268 1.31732 14.4364 1.70771L8.77824 7.36494L14.4345 13.0212C14.8249 13.4117 14.825 14.0448 14.4345 14.4353C14.044 14.8257 13.4109 14.8257 13.0204 14.4353L7.36418 8.779L1.70793 14.4353C1.3174 14.8257 0.684369 14.8257 0.29387 14.4353C-0.0965539 14.0447 -0.0965539 13.4117 0.29387 13.0212L5.95012 7.36494L0.292893 1.70771C-0.0976309 1.31719 -0.0976312 0.683196 0.292893 0.292672Z" />
</svg>
