<svg width="20" height="12" viewBox="0 0 20 12" fill="none" xmlns="http://www.w3.org/2000/svg">
<g clip-path="url(#clip0_251_2)">
<path d="M19 0C19.5523 0 20 0.447715 20 1C20 1.55228 19.5523 2 19 2H1C0.447715 2 0 1.55228 0 1C0 0.447715 0.447715 0 1 0H19Z" fill="white"/>
<path d="M19 5C19.5523 5 20 5.44772 20 6C20 6.55228 19.5523 7 19 7H1C0.447715 7 0 6.55228 0 6C0 5.44772 0.447715 5 1 5H19Z" fill="white"/>
<path d="M19 10C19.5523 10 20 10.4477 20 11C20 11.5523 19.5523 12 19 12H1C0.447715 12 0 11.5523 0 11C0 10.4477 0.447715 10 1 10H19Z" fill="white"/>
</g>
<defs>
<clipPath id="clip0_251_2">
<rect width="20" height="12" fill="white"/>
</clipPath>
</defs>
</svg>
