<svg width="16" height="25" viewBox="0 0 16 25" fill="none" xmlns="http://www.w3.org/2000/svg">
<path d="M15.9529 9.05708C15.9143 8.97886 15.8542 8.91291 15.7792 8.86677C15.7043 8.82064 15.6178 8.79618 15.5294 8.79621H10.6259L14.5429 0.660966C14.577 0.590414 14.5923 0.512539 14.5875 0.434597C14.5826 0.356655 14.5578 0.28118 14.5154 0.215203C14.4729 0.149225 14.4142 0.0948917 14.3446 0.0572633C14.2751 0.0196349 14.197 -6.45034e-05 14.1176 1.58675e-07H6.58826C6.49749 -1.37078e-05 6.40865 0.0258 6.33246 0.0743297C6.25626 0.122859 6.19595 0.192034 6.15881 0.273516L0.0412027 13.6993C0.00906233 13.7698 -0.0046287 13.8471 0.00137839 13.9242C0.00738548 14.0012 0.0328994 14.0755 0.075594 14.1404C0.118288 14.2053 0.176806 14.2586 0.245811 14.2955C0.314816 14.3324 0.392114 14.3517 0.470658 14.3517H5.06319L2.83436 24.4382C2.81163 24.5406 2.82486 24.6475 2.87188 24.7415C2.9189 24.8355 2.99694 24.911 3.09323 24.9557C3.18953 25.0004 3.2984 25.0117 3.40205 24.9877C3.5057 24.9636 3.59799 24.9057 3.66386 24.8234L15.8991 9.54578C15.9537 9.47748 15.9877 9.39544 15.9973 9.30903C16.0068 9.22262 15.9914 9.13531 15.9529 9.05708Z" fill="white"/>
</svg>
